HIERARCHY
ROOT hip
{
  OFFSET 0 0 0
  CHANNELS 6 Xposition Yposition Zposition Zrotation Yrotation Xrotation
  JOINT abdomen
  {
    OFFSET 0 20.6881 -0.73152
    CHANNELS 3 Zrotation Xrotation Yrotation
    JOINT chest
    {
      OFFSET 0 11.7043 -0.48768
      CHANNELS 3 Zrotation Xrotation Yrotation
      JOINT neck
      {
        OFFSET 0 22.1894 -2.19456
        CHANNELS 3 Zrotation Xrotation Yrotation
        JOINT head
        {
          OFFSET -0.24384 7.07133 1.2192
          CHANNELS 3 Zrotation Xrotation Yrotation
          JOINT leftEye
          {
            OFFSET 4.14528 8.04674 8.04672
            CHANNELS 3 Zrotation Xrotation Yrotation
            End Site
            {
              OFFSET 1 0 0
            }
          }
          JOINT rightEye
          {
            OFFSET -3.6576 8.04674 8.04672
            CHANNELS 3 Zrotation Xrotation Yrotation
            End Site
            {
              OFFSET 1 0 0
            }
          }
        }
      }
      JOINT rCollar
      {
        OFFSET -2.68224 19.2634 -4.8768
        CHANNELS 3 Zrotation Xrotation Yrotation
        JOINT rShldr
        {
          OFFSET -8.77824 -1.95073 1.46304
          CHANNELS 3 Zrotation Xrotation Yrotation
          JOINT rForeArm
          {
            OFFSET -28.1742 -1.7115 0.48768
            CHANNELS 3 Zrotation Xrotation Yrotation
            JOINT rHand
            {
              OFFSET -22.5879 0.773209 7.07136
              CHANNELS 3 Zrotation Xrotation Yrotation
              JOINT rThumb1
              {
                OFFSET -1.2192 -0.487915 3.41376
                CHANNELS 3 Zrotation Xrotation Yrotation
                JOINT rThumb2
                {
                  OFFSET -3.37035 -0.52449 3.41376
                  CHANNELS 3 Zrotation Xrotation Yrotation
                  End Site
                  {
                    OFFSET -1.78271 -1.18214 1.43049
                  }
                }
              }
              JOINT rIndex1
              {
                OFFSET -7.75947 0.938293 5.60832
                CHANNELS 3 Zrotation Xrotation Yrotation
                JOINT rIndex2
                {
                  OFFSET -2.54057 -0.884171 1.56538
                  CHANNELS 3 Zrotation Xrotation Yrotation
                  End Site
                  {
                    OFFSET -1.62519 -0.234802 1.16502
                  }
                }
              }
              JOINT rMid1
              {
                OFFSET -8.24714 1.18213 3.41376
                CHANNELS 3 Zrotation Xrotation Yrotation
                JOINT rMid2
                {
                  OFFSET -3.10165 -0.590103 1.0647
                  CHANNELS 3 Zrotation Xrotation Yrotation
                  End Site
                  {
                    OFFSET -2.48547 -0.328903 0.83742
                  }
                }
              }
              JOINT rRing1
              {
                OFFSET -8.82822 0.546677 1.51678
                CHANNELS 3 Zrotation Xrotation Yrotation
                JOINT rRing2
                {
                  OFFSET -2.60934 -0.819778 -0.0198488
                  CHANNELS 3 Zrotation Xrotation Yrotation
                  End Site
                  {
                    OFFSET -2.33842 -0.294052 0.168128
                  }
                }
              }
              JOINT rPinky1
              {
                OFFSET -8.27202 -0.0477905 -0.4584
                CHANNELS 3 Zrotation Xrotation Yrotation
                JOINT rPinky2
                {
                  OFFSET -1.82734 -0.647385 -0.700984
                  CHANNELS 3 Zrotation Xrotation Yrotation
                  End Site
                  {
                    OFFSET -1.69225 -0.51767 -0.607171
                  }
                }
              }
            }
          }
        }
      }
      JOINT lCollar
      {
        OFFSET 2.68224 19.2634 -4.8768
        CHANNELS 3 Zrotation Xrotation Yrotation
        JOINT lShldr
        {
          OFFSET 8.77824 -1.95073 1.46304
          CHANNELS 3 Zrotation Xrotation Yrotation
          JOINT lForeArm
          {
            OFFSET 28.1742 -1.7115 0.48768
            CHANNELS 3 Zrotation Xrotation Yrotation
            JOINT lHand
            {
              OFFSET 22.5879 0.773209 7.07136
              CHANNELS 3 Zrotation Xrotation Yrotation
              JOINT lThumb1
              {
                OFFSET 1.2192 -0.487915 3.41376
                CHANNELS 3 Zrotation Xrotation Yrotation
                JOINT lThumb2
                {
                  OFFSET 3.37035 -0.52449 3.41376
                  CHANNELS 3 Zrotation Xrotation Yrotation
                  End Site
                  {
                    OFFSET 1.78271 -1.18214 1.43049
                  }
                }
              }
              JOINT lIndex1
              {
                OFFSET 7.75947 0.938293 5.60832
                CHANNELS 3 Zrotation Xrotation Yrotation
                JOINT lIndex2
                {
                  OFFSET 2.54057 -0.884171 1.56538
                  CHANNELS 3 Zrotation Xrotation Yrotation
                  End Site
                  {
                    OFFSET 1.62519 -0.234802 1.16502
                  }
                }
              }
              JOINT lMid1
              {
                OFFSET 8.24714 1.18213 3.41376
                CHANNELS 3 Zrotation Xrotation Yrotation
                JOINT lMid2
                {
                  OFFSET 3.10165 -0.590103 1.0647
                  CHANNELS 3 Zrotation Xrotation Yrotation
                  End Site
                  {
                    OFFSET 2.48547 -0.328903 0.83742
                  }
                }
              }
              JOINT lRing1
              {
                OFFSET 8.82822 0.546677 1.51678
                CHANNELS 3 Zrotation Xrotation Yrotation
                JOINT lRing2
                {
                  OFFSET 2.60934 -0.819778 -0.0198488
                  CHANNELS 3 Zrotation Xrotation Yrotation
                  End Site
                  {
                    OFFSET 2.33842 -0.294052 0.168128
                  }
                }
              }
              JOINT lPinky1
              {
                OFFSET 8.27202 -0.0477905 -0.4584
                CHANNELS 3 Zrotation Xrotation Yrotation
                JOINT lPinky2
                {
                  OFFSET 1.82734 -0.647385 -0.700984
                  CHANNELS 3 Zrotation Xrotation Yrotation
                  End Site
                  {
                    OFFSET 1.69225 -0.51767 -0.607171
                  }
                }
              }
            }
          }
        }
      }
    }
  }
  JOINT rButtock
  {
    OFFSET -8.77824 4.35084 1.2192
    CHANNELS 3 Zrotation Xrotation Yrotation
    JOINT rThigh
    {
      OFFSET 0 -1.70687 -2.19456
      CHANNELS 3 Zrotation Xrotation Yrotation
      JOINT rShin
      {
        OFFSET 0 -36.8199 0.73152
        CHANNELS 3 Zrotation Xrotation Yrotation
        JOINT rFoot
        {
          OFFSET 0.73152 -45.1104 -5.12064
          CHANNELS 3 Zrotation Xrotation Yrotation
          End Site
          {
            OFFSET -1.1221 -3.69964 12.103
          }
        }
      }
    }
  }
  JOINT lButtock
  {
    OFFSET 8.77824 4.35084 1.2192
    CHANNELS 3 Zrotation Xrotation Yrotation
    JOINT lThigh
    {
      OFFSET 0 -1.70687 -2.19456
      CHANNELS 3 Zrotation Xrotation Yrotation
      JOINT lShin
      {
        OFFSET 0 -36.8199 0.73152
        CHANNELS 3 Zrotation Xrotation Yrotation
        JOINT lFoot
        {
          OFFSET -0.73152 -45.1104 -5.12064
          CHANNELS 3 Zrotation Xrotation Yrotation
          End Site
          {
            OFFSET 1.1221 -3.69964 12.103
          }
        }
      }
    }
  }
}
MOTION
Frames:	7
Frame Time:	0.00833333
32.7445 83.7945 63.9402 -0.4322 17.5049 1.8711 -8.79315 11.7315 -2.68814 -0.373223 -5.97915 -1.05537 6.236 4.31331 3.70985 -6.00515 17.2814 7.27695 -0.0 0.0 0.0 -0.0 0.0 0.0 -7.27753e-15 1.33206e-13 -3.04669e-14 76.8504 29.0468 3.43311 -16.761 -9.41393 31.2961 -0.279424 -14.8774 -2.13967 -6.84164e-10 1.36499e-09 -5.43103e-10 -1.17952e-09 2.35836e-09 -9.4693e-10 -6.84153e-10 1.36499e-09 -5.43122e-10 7.73091 5.47488 0.417314 -6.84167e-10 1.36499e-09 -5.43103e-10 2.90554 0.965183 0.102902 -6.84157e-10 1.36499e-09 -5.43104e-10 10.2786 0.731801 0.0259123 -6.84174e-10 1.36499e-09 -5.43094e-10 2.22167 -0.733487 -0.20892 -7.31659e-15 1.33215e-13 -3.06567e-14 -70.7138 30.0344 -16.7284 14.9243 -7.72511 -27.4327 0.882741 -25.6614 3.87184 -1.32343e-10 1.87512e-10 2.29909e-10 -2.29026e-10 3.24815e-10 3.9362e-10 -1.32345e-10 1.87515e-10 2.29919e-10 -7.73091 5.47488 -0.417314 -1.32345e-10 1.87509e-10 2.29911e-10 -2.90554 0.965183 -0.102902 -1.32347e-10 1.87514e-10 2.29905e-10 -10.2786 0.731801 -0.0259123 -1.32335e-10 1.87512e-10 2.29896e-10 -2.22167 -0.733487 0.20892 -2.03217e-16 0.0 -3.88251e-19 1.1065 -42.8572 16.9606 -0.49946 48.3016 1.23673 0.632308 0.592994 7.76561 2.03217e-16 0.0 3.88251e-19 3.20966 -1.28376 -17.4296 -0.09332 23.7663 -0.928882 -0.316802 -6.35423 -5.73244
32.7064 83.8006 64.0251 -0.49 17.5398 1.9412 -8.68862 11.7686 -2.64848 -0.36512 -5.97596 -1.04129 6.26966 4.32296 3.71495 -6.01431 17.2255 7.27917 -0.0 0.0 0.0 -0.0 0.0 0.0 -5.96026e-14 7.34517e-14 9.36338e-14 76.6851 28.8152 3.57275 -16.7141 -9.36793 31.1951 -0.281559 -14.9323 -2.14795 2.39237e-10 -3.36908e-12 6.87254e-11 4.10072e-10 -2.73315e-12 1.22252e-10 2.39248e-10 -3.3693e-12 6.87127e-11 7.73091 5.47488 0.417314 2.39235e-10 -3.36797e-12 6.8726e-11 2.90554 0.965183 0.102902 2.39246e-10 -3.36786e-12 6.87246e-11 10.2786 0.731801 0.0259123 2.39228e-10 -3.36775e-12 6.87349e-11 2.22167 -0.733487 -0.20892 -5.96659e-14 7.345e-14 9.34568e-14 -70.5822 30.1921 -17.041 15.1557 -7.92601 -27.9092 0.942306 -26.4431 4.00813 5.0352e-10 9.53168e-10 -1.97093e-10 8.7589e-10 1.64932e-09 -3.31291e-10 5.03515e-10 9.53171e-10 -1.97081e-10 -7.73091 5.47488 -0.417314 5.03515e-10 9.53163e-10 -1.97086e-10 -2.90554 0.965183 -0.102902 5.03511e-10 9.53168e-10 -1.97094e-10 -10.2786 0.731801 -0.0259123 5.03526e-10 9.53169e-10 -1.97105e-10 -2.22167 -0.733487 0.20892 -2.03217e-16 0.0 -3.88251e-19 1.10435 -42.8338 16.8292 -0.49746 48.2228 1.23284 0.657347 0.522358 7.93967 2.03217e-16 0.0 3.88251e-19 3.32601 -1.31593 -17.3621 -0.0934527 23.7219 -0.928412 -0.309471 -6.30645 -5.70668
32.6719 83.8061 64.1072 -0.5418 17.5795 2.0025 -8.58673 11.7991 -2.61558 -0.353408 -5.97081 -1.02909 6.29636 4.32701 3.71415 -6.00665 17.1721 7.26816 -0.0 0.0 0.0 -0.0 0.0 0.0 -1.02286e-13 1.47412e-14 1.62618e-13 76.5418 28.5685 3.70469 -16.6623 -9.31727 31.0836 -0.28254 -14.9579 -2.1518 1.20443e-09 -1.42143e-09 5.09708e-10 2.07397e-09 -2.45309e-09 8.96096e-10 1.20444e-09 -1.42144e-09 5.09702e-10 7.73091 5.47488 0.417314 1.20443e-09 -1.42144e-09 5.09709e-10 2.90554 0.965183 0.102902 1.20444e-09 -1.42144e-09 5.09708e-10 10.2786 0.731801 0.0259123 1.20442e-09 -1.42144e-09 5.09718e-10 2.22167 -0.733487 -0.20892 -1.02377e-13 1.47285e-14 1.62456e-13 -70.4555 30.3681 -17.3326 15.3844 -8.12779 -28.3833 0.998483 -27.1541 4.13368 1.21999e-09 1.95688e-09 -7.25806e-10 2.1223e-09 3.38862e-09 -1.23083e-09 1.21998e-09 1.95689e-09 -7.25794e-10 -7.73091 5.47488 -0.417314 1.21998e-09 1.95688e-09 -7.25795e-10 -2.90554 0.965183 -0.102902 1.21998e-09 1.95688e-09 -7.25804e-10 -10.2786 0.731801 -0.0259123 1.22e-09 1.95689e-09 -7.25816e-10 -2.22167 -0.733487 0.20892 -2.03217e-16 0.0 -3.88251e-19 1.08612 -42.7907 16.6864 -0.495094 48.1301 1.22831 0.685848 0.448272 8.13908 2.03217e-16 0.0 3.88251e-19 3.43473 -1.34329 -17.2918 -0.0934793 23.6856 -0.927753 -0.304565 -6.27385 -5.68259
32.6416 83.8097 64.1863 -0.5793 17.6267 2.0595 -8.50595 11.8125 -2.59184 -0.33649 -5.96085 -1.01983 6.3095 4.31869 3.70514 -5.9625 17.1421 7.23875 -0.0 0.0 0.0 -0.0 0.0 0.0 -1.13458e-13 -1.66888e-14 1.33633e-13 76.4285 28.3048 3.82289 -16.6062 -9.26279 30.963 -0.282065 -14.9462 -2.15004 1.77723e-09 -2.27759e-09 5.09458e-10 3.06469e-09 -3.93741e-09 9.0175e-10 1.77724e-09 -2.27759e-09 5.09455e-10 7.73091 5.47488 0.417314 1.77723e-09 -2.27759e-09 5.09458e-10 2.90554 0.965183 0.102902 1.77724e-09 -2.27759e-09 5.09457e-10 10.2786 0.731801 0.0259123 1.77722e-09 -2.27759e-09 5.09468e-10 2.22167 -0.733487 -0.20892 -1.13562e-13 -1.67072e-14 1.33484e-13 -70.3268 30.5704 -17.6048 15.6085 -8.32859 -28.8506 1.05173 -27.7958 4.24868 1.69295e-09 2.7431e-09 -1.15177e-09 2.94736e-09 4.75418e-09 -1.9574e-09 1.69294e-09 2.74311e-09 -1.15176e-09 -7.73091 5.47488 -0.417314 1.69294e-09 2.7431e-09 -1.15176e-09 -2.90554 0.965183 -0.102902 1.69293e-09 2.7431e-09 -1.15177e-09 -10.2786 0.731801 -0.0259123 1.69295e-09 2.74311e-09 -1.15178e-09 -2.22167 -0.733487 0.20892 -2.03217e-16 0.0 -3.88251e-19 1.03584 -42.7276 16.5406 -0.492375 48.0235 1.22292 0.721457 0.353903 8.37123 2.03217e-16 0.0 3.88251e-19 3.51834 -1.37667 -17.2122 -0.0934349 23.6609 -0.926612 -0.302281 -6.2611 -5.65173
32.6161 83.8136 64.2618 -0.5978 17.6831 2.1176 -8.45534 11.8082 -2.57862 -0.31343 -5.94483 -1.01428 6.30502 4.29398 3.68636 -5.86879 17.1446 7.18696 -0.0 0.0 0.0 -0.0 0.0 0.0 -6.87733e-14 -5.39679e-15 -8.20158e-14 76.3465 28.0201 3.93069 -16.5442 -9.20283 30.8297 -0.279788 -14.8878 -2.14123 1.75977e-09 -2.30216e-09 -3.0325e-10 3.04468e-09 -3.99503e-09 -5.05659e-10 1.75978e-09 -2.30217e-09 -3.03255e-10 7.73091 5.47488 0.417314 1.75977e-09 -2.30217e-09 -3.03251e-10 2.90554 0.965183 0.102902 1.75978e-09 -2.30217e-09 -3.03251e-10 10.2786 0.731801 0.0259123 1.75976e-09 -2.30216e-09 -3.03241e-10 2.22167 -0.733487 -0.20892 -6.88729e-14 -5.41249e-15 -8.21513e-14 -70.1918 30.802 -17.8597 15.8282 -8.52861 -29.3108 1.09989 -28.3546 4.35009 1.83294e-09 3.31746e-09 -1.49337e-09 3.19796e-09 5.75931e-09 -2.54439e-09 1.83293e-09 3.31746e-09 -1.49336e-09 -7.73091 5.47488 -0.417314 1.83293e-09 3.31745e-09 -1.49336e-09 -2.90554 0.965183 -0.102902 1.83293e-09 3.31745e-09 -1.49337e-09 -10.2786 0.731801 -0.0259123 1.83294e-09 3.31746e-09 -1.49338e-09 -2.22167 -0.733487 0.20892 -2.03217e-16 0.0 -3.88251e-19 0.942199 -42.6406 16.3931 -0.489117 47.8953 1.21632 0.76695 0.229943 8.64381 2.03217e-16 0.0 3.88251e-19 3.56681 -1.41917 -17.1246 -0.0933371 23.6506 -0.924857 -0.30307 -6.27478 -5.60846
32.5961 83.8177 64.3336 -0.5965 17.7497 2.1795 -8.42364 11.7912 -2.57439 -0.285251 -5.92442 -1.01172 6.28718 4.25723 3.65936 -5.73856 17.1671 7.11639 -0.0 0.0 0.0 -0.0 0.0 0.0 1.39319e-14 3.18091e-14 -4.35717e-13 76.2915 27.7165 4.02971 -16.4763 -9.13747 30.6844 -0.275994 -14.7892 -2.1264 1.41097e-09 -1.85686e-09 -1.6845e-09 2.45865e-09 -3.24853e-09 -2.90102e-09 1.41098e-09 -1.85687e-09 -1.68451e-09 7.73091 5.47488 0.417314 1.41097e-09 -1.85687e-09 -1.6845e-09 2.90554 0.965183 0.102902 1.41098e-09 -1.85687e-09 -1.6845e-09 10.2786 0.731801 0.0259123 1.41097e-09 -1.85687e-09 -1.68449e-09 2.22167 -0.733487 -0.20892 1.38461e-14 3.18013e-14 -4.35839e-13 -70.0549 31.0588 -18.0963 16.0444 -8.7286 -29.7662 1.14178 -28.8345 4.43779 1.81384e-09 3.88054e-09 -1.83536e-09 3.1753e-09 6.75005e-09 -3.13515e-09 1.81384e-09 3.88054e-09 -1.83534e-09 -7.73091 5.47488 -0.417314 1.81383e-09 3.88053e-09 -1.83535e-09 -2.90554 0.965183 -0.102902 1.81383e-09 3.88053e-09 -1.83536e-09 -10.2786 0.731801 -0.0259123 1.81385e-09 3.88053e-09 -1.83537e-09 -2.22167 -0.733487 0.20892 -2.03217e-16 0.0 -3.88251e-19 0.816521 -42.5311 16.24 -0.485407 47.7482 1.20876 0.820547 0.087095 8.95101 2.03217e-16 0.0 3.88251e-19 3.5913 -1.46498 -17.0313 -0.0931653 23.6523 -0.922663 -0.306618 -6.31064 -5.55842
32.579 83.8219 64.4032 -0.5809 17.8248 2.2455 -8.39885 11.7589 -2.57727 -0.253287 -5.90121 -1.01093 6.26184 4.21422 3.62647 -5.59132 17.1989 7.03324 -0.0 0.0 0.0 -0.0 0.0 0.0 9.32621e-14 7.27917e-14 -7.64369e-13 76.264 27.4016 4.11154 -16.4062 -9.0702 30.5347 -0.271339 -14.6671 -2.10804 9.81856e-10 -1.27719e-09 -2.98198e-09 1.73261e-09 -2.26747e-09 -5.15219e-09 9.81862e-10 -1.27719e-09 -2.98199e-09 7.73091 5.47488 0.417314 9.81856e-10 -1.27719e-09 -2.98198e-09 2.90554 0.965183 0.102902 9.81858e-10 -1.27719e-09 -2.98198e-09 10.2786 0.731801 0.0259123 9.81846e-10 -1.27719e-09 -2.98197e-09 2.22167 -0.733487 -0.20892 9.31951e-14 7.27923e-14 -7.64477e-13 -69.9219 31.3371 -18.3111 16.2563 -8.9276 -30.2153 1.1798 -29.2632 4.5167 1.70651e-09 4.26923e-09 -2.0728e-09 2.99796e-09 7.4369e-09 -3.54706e-09 1.70651e-09 4.26924e-09 -2.07278e-09 -7.73091 5.47488 -0.417314 1.7065e-09 4.26923e-09 -2.07279e-09 -2.90554 0.965183 -0.102902 1.7065e-09 4.26923e-09 -2.07279e-09 -10.2786 0.731801 -0.0259123 1.70651e-09 4.26923e-09 -2.07281e-09 -2.22167 -0.733487 0.20892 -2.03217e-16 0.0 -3.88251e-19 0.676654 -42.4067 16.0825 -0.481652 47.597 1.20089 0.879059 -0.0614464 9.27992 2.03217e-16 0.0 3.88251e-19 3.60617 -1.51148 -16.928 -0.0928976 23.6613 -0.920192 -0.311999 -6.35706 -5.51002
